<svg width="86" height="88" viewBox="0 0 86 88" fill="none" xmlns="http://www.w3.org/2000/svg">
<path d="M38.6268 51.574L30.1732 54.7303L16.5262 78.3676L26.4732 84.1105L40.1202 60.4732L38.6268 51.574Z" fill="#FAE58B"/>
<path d="M56.0136 85.134L44.6135 87.2202L40.1204 60.4733L44.6572 52.6152L51.4894 58.3691L56.0136 85.134Z" fill="#FAE58B"/>
<path d="M58.9691 49.4332L49.9956 49.47L51.489 58.3691L72.0295 75.6983L79.5097 66.7624L58.9691 49.4332Z" fill="#FAE58B"/>
<path d="M86.0005 37.6464L59.0123 37.802L52.1066 43.6612L58.9388 49.4152L85.8959 49.2416L86.0005 37.6464Z" fill="#FAE58B"/>
<path d="M79.828 20.1971L59.0433 37.8199L50.0515 37.8883L51.6729 28.9781L72.4576 11.3552L79.828 20.1971Z" fill="#FAE58B"/>
<path d="M51.6724 28.9781L44.7667 34.8374L40.33 27.0161L45.1995 0.20453L56.5419 2.16657L51.6724 28.9781Z" fill="#FAE58B"/>
<path d="M40.3301 27.0161L27.0018 3.58379L16.9813 9.45406L30.3096 32.8863L38.7087 35.9262L40.3301 27.0161Z" fill="#FAE58B"/>
<path d="M30.3096 32.8864L5.03175 23.7624L1.03307 34.7083L26.342 43.8503L34.7956 40.6941L30.3096 32.8864Z" fill="#FAE58B"/>
<path d="M26.3107 43.8323L0.900628 53.3146L4.76291 64.2126L30.173 54.7303L34.7098 46.8722L26.3107 43.8323Z" fill="#FAE58B"/>
</svg>
